<svg xmlns="http://www.w3.org/2000/svg" xmlns:xlink="http://www.w3.org/1999/xlink" width="500" zoomAndPan="magnify" viewBox="0 0 375 374.999991" height="500" preserveAspectRatio="xMidYMid meet" version="1.0"><path fill="#f9ab18" d="M 320 55 C 317.472656 52.484375 314.878906 50.046875 312.210938 47.679688 C 309.546875 45.3125 306.816406 43.027344 304.019531 40.816406 C 301.222656 38.609375 298.367188 36.480469 295.449219 34.433594 C 292.527344 32.390625 289.554688 30.429688 286.523438 28.554688 C 283.492188 26.675781 280.410156 24.890625 277.277344 23.191406 C 274.144531 21.492188 270.96875 19.882812 267.742188 18.367188 C 264.515625 16.851562 261.25 15.425781 257.945312 14.097656 C 254.636719 12.765625 251.296875 11.53125 247.917969 10.394531 C 244.542969 9.253906 241.136719 8.214844 237.699219 7.269531 C 234.261719 6.324219 230.800781 5.480469 227.316406 4.734375 C 223.832031 3.988281 220.328125 3.34375 216.804688 2.800781 C 213.285156 2.253906 209.75 1.8125 206.199219 1.46875 C 202.652344 1.125 199.097656 0.886719 195.539062 0.746094 C 191.976562 0.605469 188.414062 0.570312 184.851562 0.632812 C 181.289062 0.699219 177.730469 0.867188 174.175781 1.136719 C 170.621094 1.402344 167.078125 1.773438 163.546875 2.246094 C 160.011719 2.714844 156.496094 3.289062 152.996094 3.960938 C 149.496094 4.632812 146.019531 5.40625 142.5625 6.277344 C 139.109375 7.148438 135.679688 8.121094 132.28125 9.1875 C 128.878906 10.257812 125.511719 11.421875 122.179688 12.683594 C 118.847656 13.941406 115.550781 15.296875 112.296875 16.746094 C 109.039062 18.195312 105.828125 19.738281 102.660156 21.371094 C 99.492188 23.003906 96.375 24.726562 93.304688 26.539062 C 90.238281 28.351562 87.222656 30.25 84.261719 32.234375 C 81.300781 34.21875 78.398438 36.285156 75.558594 38.4375 C 72.714844 40.589844 69.9375 42.816406 67.222656 45.128906 C 64.507812 47.4375 61.863281 49.824219 59.285156 52.285156 C 56.707031 54.746094 54.203125 57.277344 51.769531 59.882812 C 49.335938 62.488281 46.980469 65.160156 44.703125 67.898438 C 42.421875 70.636719 40.222656 73.441406 38.105469 76.304688 C 35.984375 79.171875 33.949219 82.09375 31.996094 85.078125 C 30.046875 88.058594 28.179688 91.09375 26.402344 94.183594 C 24.625 97.273438 22.9375 100.410156 21.335938 103.59375 C 19.738281 106.78125 18.234375 110.007812 16.820312 113.28125 C 15.40625 116.550781 14.085938 119.859375 12.863281 123.207031 C 11.636719 126.554688 10.511719 129.933594 9.480469 133.347656 C 8.449219 136.757812 7.515625 140.195312 6.683594 143.660156 C 5.847656 147.125 5.117188 150.613281 4.480469 154.121094 C 3.847656 157.625 3.3125 161.148438 2.878906 164.6875 C 2.449219 168.222656 2.117188 171.769531 1.886719 175.328125 C 1.65625 178.882812 1.53125 182.445312 1.503906 186.007812 C 1.480469 189.570312 1.554688 193.132812 1.734375 196.691406 C 1.910156 200.253906 2.191406 203.804688 2.574219 207.347656 C 2.953125 210.890625 3.4375 214.421875 4.019531 217.9375 C 4.605469 221.453125 5.289062 224.949219 6.074219 228.425781 C 6.855469 231.902344 7.738281 235.351562 8.71875 238.78125 C 9.703125 242.207031 10.78125 245.601562 11.957031 248.964844 C 13.132812 252.328125 14.402344 255.65625 15.769531 258.949219 C 17.136719 262.242188 18.59375 265.492188 20.148438 268.699219 C 21.699219 271.90625 23.34375 275.066406 25.074219 278.183594 C 26.808594 281.296875 28.628906 284.359375 30.539062 287.367188 C 32.449219 290.378906 34.441406 293.332031 36.519531 296.226562 C 38.597656 299.121094 40.753906 301.957031 42.996094 304.726562 C 45.234375 307.5 47.550781 310.207031 49.949219 312.84375 C 52.34375 315.484375 54.8125 318.054688 57.351562 320.550781 C 59.894531 323.050781 62.507812 325.472656 65.1875 327.820312 C 67.867188 330.167969 70.613281 332.4375 73.421875 334.628906 C 76.234375 336.820312 79.105469 338.929688 82.035156 340.957031 C 84.96875 342.984375 87.957031 344.925781 90.996094 346.78125 C 94.039062 348.636719 97.132812 350.40625 100.277344 352.085938 C 103.421875 353.765625 106.609375 355.351562 109.84375 356.847656 C 113.078125 358.34375 116.355469 359.746094 119.667969 361.054688 C 122.984375 362.363281 126.332031 363.578125 129.71875 364.695312 C 133.101562 365.8125 136.515625 366.832031 139.957031 367.75 C 143.402344 368.671875 146.867188 369.496094 150.359375 370.21875 C 153.847656 370.941406 157.355469 371.566406 160.878906 372.085938 C 164.40625 372.609375 167.945312 373.03125 171.492188 373.351562 C 175.042969 373.671875 178.597656 373.886719 182.160156 374.003906 C 185.722656 374.121094 189.285156 374.136719 192.847656 374.046875 C 196.410156 373.960938 199.96875 373.769531 203.519531 373.476562 C 207.074219 373.1875 210.613281 372.792969 214.144531 372.300781 C 217.671875 371.804688 221.183594 371.210938 224.679688 370.515625 C 228.175781 369.820312 231.648438 369.027344 235.097656 368.132812 C 238.546875 367.238281 241.96875 366.246094 245.363281 365.15625 C 248.757812 364.066406 252.117188 362.878906 255.441406 361.597656 C 258.765625 360.316406 262.050781 358.9375 265.296875 357.46875 C 268.546875 356 271.746094 354.4375 274.902344 352.78125 C 278.0625 351.128906 281.167969 349.386719 284.226562 347.554688 C 287.28125 345.722656 290.285156 343.804688 293.234375 341.800781 C 296.179688 339.796875 299.066406 337.710938 301.894531 335.542969 C 304.722656 333.375 307.488281 331.125 310.1875 328.800781 C 312.886719 326.472656 315.515625 324.070312 318.078125 321.59375 C 320.640625 319.113281 323.128906 316.566406 325.546875 313.945312 C 327.960938 311.324219 330.300781 308.636719 332.5625 305.882812 C 334.824219 303.128906 337.003906 300.3125 339.105469 297.433594 C 341.207031 294.554688 343.222656 291.621094 345.15625 288.625 C 347.089844 285.628906 348.933594 282.582031 350.691406 279.484375 C 352.453125 276.382812 354.121094 273.234375 355.699219 270.039062 C 357.273438 266.84375 358.761719 263.605469 360.152344 260.324219 C 361.546875 257.042969 362.84375 253.726562 364.046875 250.371094 C 365.25 247.015625 366.355469 243.628906 367.363281 240.210938 C 368.371094 236.792969 369.28125 233.351562 370.09375 229.878906 C 370.90625 226.410156 371.617188 222.917969 372.230469 219.40625 C 372.839844 215.894531 373.351562 212.371094 373.761719 208.832031 C 374.171875 205.289062 374.480469 201.742188 374.6875 198.183594 C 374.890625 194.625 374.996094 191.0625 375 187.5 C 375 181.359375 374.703125 175.234375 374.101562 169.125 C 373.5 163.015625 372.597656 156.949219 371.398438 150.925781 C 370.199219 144.90625 368.707031 138.957031 366.921875 133.082031 C 365.136719 127.207031 363.066406 121.4375 360.714844 115.765625 C 358.359375 110.09375 355.734375 104.554688 352.832031 99.140625 C 349.933594 93.730469 346.773438 88.472656 343.355469 83.371094 C 339.941406 78.273438 336.28125 73.351562 332.378906 68.609375 C 328.476562 63.871094 324.347656 59.332031 320 55 Z M 299.199219 101.375 C 298.949219 102.5625 298.488281 103.667969 297.824219 104.683594 C 297.160156 105.703125 296.335938 106.566406 295.351562 107.273438 C 293.070312 108.472656 290.644531 109 288.074219 108.851562 L 276.875 108.851562 L 276.875 293.351562 C 276.925781 294.308594 276.847656 295.257812 276.648438 296.195312 C 276.445312 297.136719 276.125 298.03125 275.6875 298.886719 C 275.246094 299.742188 274.703125 300.523438 274.058594 301.234375 C 273.410156 301.945312 272.683594 302.558594 271.875 303.074219 C 268.542969 305.242188 262.976562 306.324219 255.175781 306.324219 C 250.472656 306.59375 245.972656 305.757812 241.675781 303.824219 C 238.382812 301.855469 235.800781 299.195312 233.925781 295.851562 L 145.398438 149.449219 L 144.625 149.449219 L 144.625 261.75 L 166.449219 261.75 C 169.039062 261.59375 171.464844 262.148438 173.726562 263.425781 C 174.695312 264.171875 175.511719 265.058594 176.171875 266.089844 C 176.835938 267.121094 177.300781 268.230469 177.574219 269.425781 C 178.5625 273.535156 178.984375 277.699219 178.851562 281.925781 C 178.984375 286.148438 178.558594 290.316406 177.574219 294.425781 C 177.3125 295.609375 176.851562 296.710938 176.1875 297.726562 C 175.523438 298.742188 174.703125 299.609375 173.726562 300.324219 C 171.445312 301.523438 169.019531 302.050781 166.449219 301.898438 L 87 301.898438 C 84.421875 302.042969 81.988281 301.519531 79.699219 300.324219 C 78.71875 299.613281 77.898438 298.75 77.238281 297.730469 C 76.578125 296.714844 76.125 295.613281 75.875 294.425781 C 74.890625 290.316406 74.464844 286.148438 74.601562 281.925781 C 74.464844 277.699219 74.890625 273.535156 75.875 269.425781 C 76.140625 268.230469 76.597656 267.117188 77.257812 266.085938 C 77.914062 265.054688 78.730469 264.167969 79.699219 263.425781 C 81.96875 262.152344 84.402344 261.59375 87 261.75 L 100.175781 261.75 L 100.175781 108.925781 L 87 108.925781 C 84.421875 109.070312 81.988281 108.542969 79.699219 107.351562 C 78.726562 106.628906 77.910156 105.761719 77.25 104.746094 C 76.59375 103.730469 76.132812 102.632812 75.875 101.449219 C 74.890625 97.339844 74.464844 93.171875 74.601562 88.949219 C 74.464844 84.726562 74.890625 80.558594 75.875 76.449219 C 76.132812 75.253906 76.589844 74.140625 77.25 73.105469 C 77.90625 72.074219 78.722656 71.1875 79.699219 70.449219 C 81.96875 69.179688 84.402344 68.621094 87 68.773438 L 138.925781 68.773438 C 144.140625 68.773438 147.808594 70.542969 149.925781 74.074219 L 231.550781 209.050781 L 232.351562 209.050781 L 232.351562 108.925781 L 214.25 108.925781 C 211.679688 109.074219 209.253906 108.550781 206.976562 107.351562 C 205.996094 106.632812 205.175781 105.765625 204.511719 104.75 C 203.851562 103.734375 203.386719 102.632812 203.125 101.449219 C 202.140625 97.339844 201.714844 93.171875 201.851562 88.949219 C 201.714844 84.726562 202.140625 80.558594 203.125 76.449219 C 203.386719 75.25 203.847656 74.136719 204.511719 73.105469 C 205.175781 72.074219 205.996094 71.1875 206.976562 70.449219 C 209.234375 69.175781 211.660156 68.617188 214.25 68.773438 L 288 68.773438 C 290.589844 68.617188 293.015625 69.175781 295.273438 70.449219 C 296.261719 71.179688 297.089844 72.0625 297.753906 73.09375 C 298.417969 74.128906 298.875 75.246094 299.125 76.449219 C 300.109375 80.558594 300.535156 84.726562 300.398438 88.949219 C 300.535156 93.171875 300.109375 97.339844 299.125 101.449219 Z M 299.199219 101.375 " fill-opacity="1" fill-rule="nonzero"/></svg>